<?xml version="1.0" encoding="iso-8859-1"?>
<!-- Generator: Adobe Illustrator 18.0.0, SVG Export Plug-In . SVG Version: 6.00 Build 0)  -->
<!DOCTYPE svg PUBLIC "-//W3C//DTD SVG 1.1//EN" "http://www.w3.org/Graphics/SVG/1.1/DTD/svg11.dtd">
<svg version="1.1" id="Capa_1" xmlns="http://www.w3.org/2000/svg" xmlns:xlink="http://www.w3.org/1999/xlink" x="0px" y="0px"
	 viewBox="0 0 28 20" style="enable-background:new 0 0 28 20;" xml:space="preserve">
<g id="_x31_0_19_" fill="#2396fd">
	<g>
		<path style="fill-rule:evenodd;clip-rule:evenodd;" d="M2,16c-1.105,0-2,0.895-2,2c0,1.105,0.895,2,2,2c1.104,0,2-0.895,2-2
			C4,16.896,3.105,16,2,16z M9,3h18c0.552,0,1-0.448,1-1c0-0.552-0.448-1-1-1H9C8.448,1,8,1.448,8,2C8,2.552,8.448,3,9,3z M2,8
			c-1.105,0-2,0.896-2,2c0,1.105,0.895,2,2,2c1.104,0,2-0.896,2-2C4,8.896,3.105,8,2,8z M27,9H9c-0.552,0-1,0.448-1,1
			c0,0.552,0.448,1,1,1h18c0.552,0,1-0.448,1-1C28,9.448,27.552,9,27,9z M27,17H9c-0.552,0-1,0.448-1,1c0,0.552,0.448,1,1,1h18
			c0.552,0,1-0.448,1-1C28,17.448,27.552,17,27,17z M2,0C0.895,0,0,0.896,0,2s0.895,2,2,2c1.104,0,2-0.896,2-2S3.105,0,2,0z"/>
	</g>
</g>
<g>
</g>
<g>
</g>
<g>
</g>
<g>
</g>
<g>
</g>
<g>
</g>
<g>
</g>
<g>
</g>
<g>
</g>
<g>
</g>
<g>
</g>
<g>
</g>
<g>
</g>
<g>
</g>
<g>
</g>
</svg>
